<svg width="72" height="73" viewBox="0 0 72 73" fill="none" xmlns="http://www.w3.org/2000/svg">
<path fill-rule="evenodd" clip-rule="evenodd" d="M18.9402 25H53.0598C54.4232 25 55.5296 25 56.4016 25.0963C57.2982 25.1953 58.0982 25.4086 58.7561 25.949C59.4424 26.5128 59.7424 27.2406 59.877 28.0631C60.0001 28.8152 60.0001 29.7554 60 30.8488V58.8571C60 59.4094 59.5523 59.8571 59 59.8571C58.4477 59.8571 58 59.4094 58 58.8571V30.9286C58 29.7327 57.9969 28.9579 57.9033 28.3861C57.8182 27.8664 57.679 27.6525 57.4866 27.4945C57.2658 27.3131 56.9194 27.1656 56.182 27.0842C55.4329 27.0014 54.4375 27 53 27H19C17.5625 27 16.5671 27.0014 15.818 27.0842C15.0806 27.1656 14.7342 27.3131 14.5134 27.4945C14.321 27.6525 14.1818 27.8664 14.0967 28.3861C14.0031 28.9579 14 29.7327 14 30.9286V67.0714C14 68.2673 14.0031 69.0421 14.0967 69.6139C14.1818 70.1336 14.321 70.3475 14.5134 70.5055C14.7342 70.6869 15.0806 70.8344 15.818 70.9158C16.5671 70.9986 17.5625 71 19 71H53C54.4375 71 55.4329 70.9986 56.1821 70.9158C56.9194 70.8344 57.2658 70.6869 57.4866 70.5055C57.679 70.3475 57.8182 70.1336 57.9033 69.6139C57.9969 69.0421 58 68.2673 58 67.0714V65.4286C58 64.8763 58.4477 64.4286 59 64.4286C59.5523 64.4286 60 64.8763 60 65.4286V67.1512C60.0001 68.2446 60.0001 69.1848 59.877 69.9369C59.7424 70.7594 59.4424 71.4872 58.7561 72.051C58.0982 72.5914 57.2982 72.8047 56.4016 72.9037C55.5296 73 54.4232 73 53.0598 73H18.9402C17.5768 73 16.4704 73 15.5984 72.9037C14.7019 72.8047 13.9018 72.5914 13.244 72.051C12.5576 71.4872 12.2576 70.7594 12.123 69.9369C11.9999 69.1848 11.9999 68.2446 12 67.1512L12 30.9286C12 30.9019 12 30.8753 12 30.8488C11.9999 29.7554 11.9999 28.8152 12.123 28.0631C12.2576 27.2406 12.5576 26.5128 13.2439 25.949C13.9018 25.4086 14.7019 25.1953 15.5984 25.0963C16.4704 25 17.5768 25 18.9402 25Z" fill="#002E5D"/>
<path fill-rule="evenodd" clip-rule="evenodd" d="M38 32.5H34C33.1716 32.5 32.5 33.1716 32.5 34C32.5 34.8284 33.1716 35.5 34 35.5H38C38.8284 35.5 39.5 34.8284 39.5 34C39.5 33.1716 38.8284 32.5 38 32.5ZM34 31C32.3431 31 31 32.3431 31 34C31 35.6569 32.3431 37 34 37H38C39.6569 37 41 35.6569 41 34C41 32.3431 39.6569 31 38 31H34Z" fill="#002E5D"/>
<path fill-rule="evenodd" clip-rule="evenodd" d="M47 43H25C23.5435 43 22.6011 43.0024 21.9069 43.0717C21.3896 43.1234 21.1817 43.2 21.1074 43.237C21.0993 43.2652 21.0888 43.3076 21.0779 43.368C21.0076 43.7563 21 44.3313 21 45.4571V62.5429C21 63.6687 21.0076 64.2437 21.0779 64.632C21.0888 64.6924 21.0993 64.7348 21.1074 64.763C21.1817 64.8 21.3896 64.8766 21.9069 64.9283C22.6011 64.9976 23.5435 65 25 65H48.625C50.0442 65 50.339 64.9811 50.5182 64.931L51.0568 66.8572C50.5459 67 49.9056 67 48.625 67H25C22.1716 67 20.7574 67 19.8787 66.3473C19 65.6945 19 64.644 19 62.5429V45.4571C19 43.356 19 42.3055 19.8787 41.6527C20.7574 41 22.1716 41 25 41H47C49.8284 41 51.2426 41 52.1213 41.6527C53 42.3055 53 43.356 53 45.4571V63.75C53 64.7013 53 65.1769 52.8077 65.5564C52.5034 66.1571 51.8653 66.6311 51.0568 66.8572L50.5182 64.931C50.7082 64.8779 50.8438 64.8048 50.9287 64.7418C50.9515 64.7248 50.9694 64.7095 50.9833 64.6966C50.9984 64.5148 51 64.2564 51 63.75V45.4571C51 44.3313 50.9924 43.7563 50.9221 43.368C50.9112 43.3076 50.9007 43.2652 50.8926 43.237C50.8183 43.2 50.6104 43.1234 50.0931 43.0717C49.3989 43.0024 48.4565 43 47 43ZM21.0713 43.2582L21.0713 43.2582L21.0713 43.2582Z" fill="#002E5D"/>
<path fill-rule="evenodd" clip-rule="evenodd" d="M47 48C47 48.5523 46.5523 49 46 49H26C25.4477 49 25 48.5523 25 48C25 47.4477 25.4477 47 26 47H46C46.5523 47 47 47.4477 47 48Z" fill="#002E5D"/>
<path fill-rule="evenodd" clip-rule="evenodd" d="M25 35.5C25.8284 35.5 26.5 34.8284 26.5 34C26.5 33.1716 25.8284 32.5 25 32.5C24.1716 32.5 23.5 33.1716 23.5 34C23.5 34.8284 24.1716 35.5 25 35.5ZM25 37C26.6569 37 28 35.6569 28 34C28 32.3431 26.6569 31 25 31C23.3431 31 22 32.3431 22 34C22 35.6569 23.3431 37 25 37Z" fill="#002E5D"/>
<path fill-rule="evenodd" clip-rule="evenodd" d="M47 35.5C47.8284 35.5 48.5 34.8284 48.5 34C48.5 33.1716 47.8284 32.5 47 32.5C46.1716 32.5 45.5 33.1716 45.5 34C45.5 34.8284 46.1716 35.5 47 35.5ZM47 37C48.6569 37 50 35.6569 50 34C50 32.3431 48.6569 31 47 31C45.3431 31 44 32.3431 44 34C44 35.6569 45.3431 37 47 37Z" fill="#002E5D"/>
</svg>
