<svg width="39" height="74" viewBox="0 0 39 74" fill="none" xmlns="http://www.w3.org/2000/svg">
<path d="M7.5 25C8.05229 25 8.5 25.4477 8.5 26L8.5 40C8.5 40.5523 8.05229 41 7.5 41C6.94772 41 6.5 40.5523 6.5 40L6.5 26C6.5 25.4477 6.94772 25 7.5 25Z" fill="#002E5D"/>
<path fill-rule="evenodd" clip-rule="evenodd" d="M7.42943 -1.41029e-05C6.07533 -4.83165e-05 4.95869 -7.65324e-05 4.07494 0.11874C3.14711 0.243484 2.32769 0.515452 1.67158 1.17156C1.01547 1.82767 0.743499 2.64709 0.618756 3.57493C0.499939 4.45867 0.499967 5.57528 0.500001 6.92938V67.0706C0.499967 68.4247 0.499938 69.5413 0.618756 70.425C0.743499 71.3529 1.01547 72.1723 1.67157 72.8284C2.32769 73.4845 3.14711 73.7565 4.07494 73.8812C4.95872 74.0001 6.07536 74 7.42952 74H31.5705C32.9246 74 34.0413 74.0001 34.9251 73.8812C35.8529 73.7565 36.6723 73.4845 37.3284 72.8284C37.9845 72.1723 38.2565 71.3529 38.3813 70.425C38.5001 69.5413 38.5 68.4247 38.5 67.0707V56C38.5 55.4477 38.0523 55 37.5 55C36.9477 55 36.5 55.4477 36.5 56V67H2.5V49L37.4921 49C37.4947 49 37.4974 49 37.5 49C38.0523 49 38.5 48.5523 38.5 48V6.92938C38.5 5.57531 38.5001 4.45866 38.3813 3.57492C38.2565 2.64709 37.9845 1.82767 37.3284 1.17156C36.6723 0.515452 35.8529 0.243484 34.9251 0.11874C34.0413 -7.65324e-05 32.9247 -4.83165e-05 31.5706 -1.41029e-05H7.42943ZM36.5 47V6.99999C36.5 5.5575 36.4979 4.57624 36.3991 3.84142C36.3042 3.13537 36.1368 2.80835 35.9142 2.58577C35.6916 2.3632 35.3646 2.19583 34.6586 2.10091C33.9238 2.00211 32.9425 1.99999 31.5 1.99999H7.5C6.05752 1.99999 5.07626 2.00211 4.34144 2.10091C3.63538 2.19583 3.30836 2.3632 3.08579 2.58577C2.86322 2.80835 2.69585 3.13537 2.60092 3.84142C2.50213 4.57624 2.5 5.5575 2.5 6.99999V47L36.5 47ZM2.51775 69C2.53168 69.4488 2.55655 69.8286 2.60092 70.1586C2.69585 70.8646 2.86322 71.1916 3.08579 71.4142C3.30836 71.6368 3.63538 71.8041 4.34144 71.8991C5.07626 71.9979 6.05752 72 7.5 72H31.5C32.9425 72 33.9238 71.9979 34.6586 71.8991C35.3646 71.8041 35.6916 71.6368 35.9142 71.4142C36.1368 71.1916 36.3042 70.8646 36.3991 70.1586C36.4435 69.8286 36.4683 69.4488 36.4823 69H2.51775Z" fill="#002E5D"/>
<path d="M7.5 53C8.05229 53 8.5 53.4477 8.5 54V60C8.5 60.5523 8.05229 61 7.5 61C6.94772 61 6.5 60.5523 6.5 60V54C6.5 53.4477 6.94772 53 7.5 53Z" fill="#002E5D"/>
</svg>
