<svg width="71" height="35" viewBox="0 0 71 35" fill="none" xmlns="http://www.w3.org/2000/svg">
<path fill-rule="evenodd" clip-rule="evenodd" d="M70.5 11V10.9252C70.5 8.63165 70.5 6.8086 70.308 5.3804C70.1101 3.90794 69.6916 2.70636 68.7426 1.75736C67.7936 0.808361 66.5921 0.389946 65.1196 0.191979C63.6914 -3.76701e-05 61.8683 -1.98628e-05 59.5748 2.57043e-06L59.5 3.04409e-06L11.5 4.88395e-07H11.4252C9.13165 -2.21016e-05 7.30859 -4.00543e-05 5.88039 0.191976C4.40794 0.389943 3.20636 0.808358 2.25736 1.75736C1.30836 2.70636 0.889946 3.90794 0.691979 5.38039C0.499962 6.80861 0.499977 8.6317 0.500001 10.9253V11V13V13.0747C0.499977 15.3683 0.499962 17.1914 0.691978 18.6196C0.889946 20.0921 1.30836 21.2936 2.25736 22.2426C3.20636 23.1916 4.40794 23.6101 5.88039 23.808C7.3086 24 9.13166 24 11.4252 24H11.5H12C12.0863 24 12.1701 23.9891 12.25 23.9685C12.3299 23.9891 12.4137 24 12.5 24C13.0523 24 13.5 23.5523 13.5 23V18C13.5 17.0289 13.5021 16.4012 13.5643 15.9387C13.6226 15.505 13.7168 15.369 13.7929 15.2929C13.869 15.2168 14.005 15.1226 14.4387 15.0643C14.9012 15.0021 15.5289 15 16.5 15L54.5 15C55.4711 15 56.0988 15.0021 56.5613 15.0643C56.995 15.1226 57.131 15.2168 57.2071 15.2929C57.2832 15.369 57.3774 15.505 57.4357 15.9387C57.4979 16.4012 57.5 17.0289 57.5 18V22L23 22C22.4477 22 22 22.4477 22 23C22 23.5523 22.4477 24 23 24L59.5 24H59.5748C61.8684 24 63.6914 24 65.1196 23.808C66.5921 23.6101 67.7936 23.1916 68.7426 22.2426C69.6916 21.2936 70.1101 20.0921 70.308 18.6196C70.5 17.1914 70.5 15.3684 70.5 13.0748V13V11ZM59.5 22C61.8853 22 63.5737 21.9979 64.8531 21.8259C66.1038 21.6577 66.813 21.3439 67.3284 20.8284C67.8439 20.313 68.1577 19.6038 68.3259 18.3531C68.4979 17.0737 68.5 15.3853 68.5 13V11C68.5 8.61471 68.4979 6.92634 68.3259 5.64689C68.1577 4.39621 67.8439 3.68704 67.3284 3.17158C66.813 2.65611 66.1038 2.34229 64.8531 2.17414C63.5737 2.00213 61.8853 2 59.5 2L11.5 2C9.11471 2 7.42634 2.00212 6.14689 2.17414C4.89621 2.34229 4.18704 2.65611 3.67157 3.17157C3.15611 3.68704 2.84229 4.39621 2.67414 5.64689C2.50212 6.92634 2.5 8.61471 2.5 11L2.5 13C2.5 15.3853 2.50212 17.0737 2.67414 18.3531C2.84229 19.6038 3.1561 20.313 3.67157 20.8284C4.18703 21.3439 4.89621 21.6577 6.14689 21.8259C7.42634 21.9979 9.11471 22 11.5 22L11.5 18L11.5 17.9342C11.5 17.0477 11.4999 16.2839 11.5821 15.6722C11.6703 15.0167 11.869 14.3883 12.3787 13.8787C12.8883 13.369 13.5167 13.1703 14.1722 13.0821C14.7839 12.9999 15.5477 12.9999 16.4342 13L16.5 13L54.5 13L54.5658 13C55.4523 13 56.2161 12.9999 56.8278 13.0821C57.4833 13.1703 58.1117 13.369 58.6213 13.8787C59.131 14.3883 59.3297 15.0167 59.4179 15.6722C59.5001 16.2838 59.5 17.0476 59.5 17.934V17.9341V18V22ZM11.75 7.42672L11.75 7.5L11.75 7.57328C11.7498 7.966 11.7496 8.26899 11.8028 8.5365C12.0198 9.6274 12.8726 10.4802 13.9635 10.6972C14.231 10.7504 14.534 10.7502 14.9267 10.75H14.9267L15 10.75H20L20.0733 10.75C20.466 10.7502 20.769 10.7504 21.0365 10.6972C22.1274 10.4802 22.9802 9.6274 23.1972 8.5365C23.2504 8.26899 23.2502 7.966 23.25 7.57327L23.25 7.5L23.25 7.42673C23.2502 7.034 23.2504 6.73101 23.1972 6.4635C22.9802 5.3726 22.1274 4.51983 21.0365 4.30284C20.769 4.24963 20.466 4.24978 20.0733 4.24998L20 4.25L15 4.25L14.9267 4.24998C14.534 4.24978 14.231 4.24963 13.9635 4.30284C12.8726 4.51983 12.0198 5.3726 11.8028 6.4635C11.7496 6.73101 11.7498 7.034 11.75 7.42672ZM13.25 7.5C13.25 6.9994 13.2536 6.85862 13.274 6.75614C13.3727 6.26027 13.7603 5.87265 14.2561 5.77402C14.3586 5.75363 14.4994 5.75 15 5.75L20 5.75C20.5006 5.75 20.6414 5.75363 20.7439 5.77402C21.2397 5.87265 21.6273 6.26027 21.726 6.75614C21.7464 6.85862 21.75 6.9994 21.75 7.5C21.75 8.0006 21.7464 8.14138 21.726 8.24386C21.6273 8.73973 21.2397 9.12735 20.7439 9.22598C20.6414 9.24637 20.5006 9.25 20 9.25H15C14.4994 9.25 14.3586 9.24637 14.2561 9.22598C13.7603 9.12735 13.3727 8.73973 13.274 8.24386C13.2536 8.14138 13.25 8.0006 13.25 7.5ZM58.2424 7.5C58.6566 7.5 58.9924 7.16421 58.9924 6.75C58.9924 6.33579 58.6566 6 58.2424 6H52.2501C51.8359 6 51.5001 6.33579 51.5001 6.75C51.5001 7.16421 51.8359 7.5 52.2501 7.5H58.2424ZM48.5412 31.1826C48.0635 31.4598 47.4533 31.2963 47.1782 30.8174L45.9266 28.6382C45.6516 28.1593 45.8158 27.5463 46.2935 27.2691C46.7711 26.9919 47.3814 27.1554 47.6564 27.6343L48.908 29.8135C49.1831 30.2924 49.0189 30.9054 48.5412 31.1826ZM40.3117 33.8246C40.4998 34.3439 41.0726 34.611 41.5913 34.4213C42.11 34.2315 42.378 33.6567 42.19 33.1374L40.3083 27.9406C40.1203 27.4213 39.5474 27.1542 39.0288 27.3439C38.5101 27.5337 38.2421 28.1085 38.4301 28.6278L40.3117 33.8246ZM22.1021 31.1826C22.5797 31.4598 23.19 31.2963 23.465 30.8174L24.7166 28.6382C24.9917 28.1593 24.8274 27.5464 24.3498 27.2691C23.8721 26.9919 23.2619 27.1554 22.9868 27.6343L21.7352 29.8135C21.4602 30.2924 21.6244 30.9054 22.1021 31.1826ZM30.3313 33.8246C30.1433 34.3439 29.5704 34.611 29.0518 34.4213C28.5331 34.2315 28.2651 33.6567 28.4531 33.1374L30.3347 27.9406C30.5227 27.4213 31.0956 27.1542 31.6143 27.3439C32.1329 27.5337 32.401 28.1085 32.213 28.6278L30.3313 33.8246ZM58.9924 9.01581C58.9924 8.6016 58.6566 8.26581 58.2424 8.26581H56.7455C56.3313 8.26581 55.9955 8.6016 55.9955 9.01581C55.9955 9.43002 56.3313 9.76581 56.7455 9.76581H58.2424C58.6566 9.76581 58.9924 9.43002 58.9924 9.01581Z" fill="#002E5D"/>
</svg>
