<svg width="39" height="66" viewBox="0 0 39 66" fill="none" xmlns="http://www.w3.org/2000/svg">
<path fill-rule="evenodd" clip-rule="evenodd" d="M7.42943 1.15588e-06C6.07533 -3.30577e-05 4.95869 -6.12736e-05 4.07494 0.118756C3.14711 0.243499 2.32768 0.515468 1.67158 1.17158C1.01547 1.82769 0.743498 2.64711 0.618755 3.57494C0.499937 4.45869 0.499966 5.5753 0.500001 6.92942V59.0706C0.499966 60.4247 0.499937 61.5413 0.618755 62.4251C0.743498 63.3529 1.01547 64.1723 1.67158 64.8284C2.32768 65.4845 3.14711 65.7565 4.07494 65.8812C4.95872 66.0001 6.07536 66 7.42952 66H31.5705C32.9246 66 34.0413 66.0001 34.9251 65.8812C35.8529 65.7565 36.6723 65.4845 37.3284 64.8284C37.9845 64.1723 38.2565 63.3529 38.3812 62.4251C38.5001 61.5413 38.5 60.4248 38.5 59.0707V49.8889C38.5 49.3366 38.0523 48.8889 37.5 48.8889C36.9477 48.8889 36.5 49.3366 36.5 49.8889V59L2.5 59V7C2.5 5.55752 2.50213 4.57625 2.60092 3.84143C2.69585 3.13538 2.86322 2.80836 3.08579 2.58579C3.30836 2.36322 3.63538 2.19585 4.34143 2.10092C5.07626 2.00213 6.05752 2 7.5 2H31.5C32.9425 2 33.9237 2.00213 34.6586 2.10092C35.3646 2.19585 35.6916 2.36322 35.9142 2.58579C36.1368 2.80836 36.3042 3.13538 36.3991 3.84144C36.4979 4.57626 36.5 5.55752 36.5 7V42C36.5 42.5523 36.9477 43 37.5 43C38.0523 43 38.5 42.5523 38.5 42V6.9294C38.5 5.57533 38.5001 4.45867 38.3812 3.57494C38.2565 2.64711 37.9845 1.82769 37.3284 1.17158C36.6723 0.515468 35.8529 0.243499 34.9251 0.118756C34.0413 -6.12661e-05 32.9247 -3.30577e-05 31.5706 1.15588e-06H7.42943ZM2.51774 61C2.53168 61.4488 2.55655 61.8286 2.60092 62.1586C2.69585 62.8646 2.86322 63.1916 3.08579 63.4142C3.30836 63.6368 3.63538 63.8042 4.34143 63.8991C5.07626 63.9979 6.05752 64 7.5 64H31.5C32.9425 64 33.9237 63.9979 34.6586 63.8991C35.3646 63.8042 35.6916 63.6368 35.9142 63.4142C36.1368 63.1916 36.3042 62.8646 36.3991 62.1586C36.4435 61.8286 36.4683 61.4488 36.4823 61L2.51774 61Z" fill="#002E5D"/>
<path d="M7.49999 23.9999C8.05228 23.9999 8.49999 24.4476 8.49999 24.9999L8.5 38.9999C8.5 39.5522 8.05228 39.9999 7.5 39.9999C6.94771 39.9999 6.5 39.5522 6.5 38.9999L6.49999 24.9999C6.49999 24.4476 6.94771 23.9999 7.49999 23.9999Z" fill="#002E5D"/>
</svg>
