<svg width="72" height="73" viewBox="0 0 72 73" fill="none" xmlns="http://www.w3.org/2000/svg">
<path fill-rule="evenodd" clip-rule="evenodd" d="M53.0706 15H18.9294C17.5753 15 16.4587 14.9999 15.5749 15.1188C14.6471 15.2435 13.8277 15.5155 13.1716 16.1716C12.5155 16.8277 12.2435 17.6471 12.1187 18.5749C11.9999 19.4587 12 20.5753 12 21.9294V66.0706C12 67.4247 11.9999 68.5413 12.1187 69.4251C12.2435 70.3529 12.5155 71.1723 13.1716 71.8284C13.8277 72.4845 14.6471 72.7565 15.5749 72.8813C16.4587 73.0001 17.5753 73 18.9294 73H53.0706C54.4247 73 55.5413 73.0001 56.4251 72.8813C57.3529 72.7565 58.1723 72.4845 58.8284 71.8284C59.4845 71.1723 59.7565 70.3529 59.8812 69.4251C60.0001 68.5413 60 67.4247 60 66.0706L60 64C60 63.4477 59.5523 63 59 63C58.4477 63 58 63.4477 58 64V66C58 67.4425 57.9979 68.4238 57.8991 69.1586C57.8042 69.8646 57.6368 70.1916 57.4142 70.4142C57.1916 70.6368 56.8646 70.8042 56.1586 70.8991C55.4237 70.9979 54.4425 71 53 71H19C17.5575 71 16.5762 70.9979 15.8414 70.8991C15.1354 70.8042 14.8084 70.6368 14.5858 70.4142C14.3632 70.1916 14.1958 69.8646 14.1009 69.1586C14.0021 68.4238 14 67.4425 14 66V22C14 20.5575 14.0021 19.5763 14.1009 18.8414C14.1958 18.1354 14.3632 17.8084 14.5858 17.5858C14.8084 17.3632 15.1354 17.1958 15.8414 17.1009C16.5762 17.0021 17.5575 17 19 17H53C54.4425 17 55.4237 17.0021 56.1586 17.1009C56.8646 17.1958 57.1916 17.3632 57.4142 17.5858C57.6368 17.8084 57.8042 18.1354 57.8991 18.8414C57.9979 19.5763 58 20.5575 58 22V56C58 56.5523 58.4477 57 59 57C59.5523 57 60 56.5523 60 56L60 21.9294C60 20.5753 60.0001 19.4587 59.8812 18.5749C59.7565 17.6471 59.4845 16.8277 58.8284 16.1716C58.1723 15.5155 57.3529 15.2435 56.4251 15.1188C55.5413 14.9999 54.4247 15 53.0706 15Z" fill="#002E5D"/>
<path fill-rule="evenodd" clip-rule="evenodd" d="M21.2929 39.2929L21.2929 39.2929C21.2927 39.2931 21.2923 39.2934 21.2918 39.2938C21.2788 39.3052 21.1691 39.401 21.092 39.9747C21.0042 40.6274 21 41.5292 21 43V61C21 62.4708 21.0042 63.3726 21.092 64.0253C21.1691 64.599 21.2788 64.6948 21.2918 64.7062C21.2923 64.7066 21.2927 64.7069 21.2929 64.7071L19.8837 66.1163L21.2929 64.7071C21.2931 64.7073 21.2934 64.7077 21.2938 64.7082C21.3052 64.7212 21.401 64.8309 21.9747 64.908C22.6274 64.9958 23.5292 65 25 65H49.25C49.6121 65 49.8336 64.9997 50.0019 64.994C50.1426 64.9891 50.1897 64.9817 50.1951 64.9808C50.5918 64.9019 50.9019 64.5918 50.9808 64.1951C50.9796 64.2012 50.9885 64.1625 50.994 64.0019C50.9997 63.8336 51 63.6121 51 63.25V43C51 41.5292 50.9958 40.6274 50.908 39.9747C50.8309 39.401 50.7212 39.3052 50.7082 39.2938C50.7077 39.2934 50.7073 39.2931 50.7071 39.2929C50.7069 39.2927 50.7066 39.2923 50.7062 39.2918C50.6948 39.2788 50.599 39.1691 50.0253 39.092C49.3726 39.0042 48.4708 39 47 39H25C23.5292 39 22.6274 39.0042 21.9747 39.092C21.401 39.1691 21.3052 39.2788 21.2938 39.2918C21.2934 39.2923 21.2931 39.2927 21.2929 39.2929ZM47 37H25C22.1716 37 20.7574 37 19.8787 37.8787C19 38.7574 19 40.1716 19 43V61C19 63.8284 19 65.2426 19.8787 66.1213C20.7574 67 22.1716 67 25 67H49.25C49.947 67 50.2955 67 50.5853 66.9424C51.7753 66.7056 52.7056 65.7753 52.9424 64.5853C53 64.2955 53 63.947 53 63.25V43C53 40.1716 53 38.7574 52.1213 37.8787C51.2426 37 49.8284 37 47 37Z" fill="#002E5D"/>
<path fill-rule="evenodd" clip-rule="evenodd" d="M47 33C47 33.5523 46.5523 34 46 34H26C25.4477 34 25 33.5523 25 33C25 32.4477 25.4477 32 26 32H46C46.5523 32 47 32.4477 47 33Z" fill="#002E5D"/>
<path fill-rule="evenodd" clip-rule="evenodd" d="M32 25.5C32.8284 25.5 33.5 24.8284 33.5 24C33.5 23.1716 32.8284 22.5 32 22.5C31.1716 22.5 30.5 23.1716 30.5 24C30.5 24.8284 31.1716 25.5 32 25.5ZM32 27C33.6569 27 35 25.6569 35 24C35 22.3431 33.6569 21 32 21C30.3431 21 29 22.3431 29 24C29 25.6569 30.3431 27 32 27Z" fill="#002E5D"/>
<path fill-rule="evenodd" clip-rule="evenodd" d="M41 25.5C41.8284 25.5 42.5 24.8284 42.5 24C42.5 23.1716 41.8284 22.5 41 22.5C40.1716 22.5 39.5 23.1716 39.5 24C39.5 24.8284 40.1716 25.5 41 25.5ZM41 27C42.6569 27 44 25.6569 44 24C44 22.3431 42.6569 21 41 21C39.3431 21 38 22.3431 38 24C38 25.6569 39.3431 27 41 27Z" fill="#002E5D"/>
<path fill-rule="evenodd" clip-rule="evenodd" d="M50 25.5C50.8284 25.5 51.5 24.8284 51.5 24C51.5 23.1716 50.8284 22.5 50 22.5C49.1716 22.5 48.5 23.1716 48.5 24C48.5 24.8284 49.1716 25.5 50 25.5ZM50 27C51.6569 27 53 25.6569 53 24C53 22.3431 51.6569 21 50 21C48.3431 21 47 22.3431 47 24C47 25.6569 48.3431 27 50 27Z" fill="#002E5D"/>
<path fill-rule="evenodd" clip-rule="evenodd" d="M19 22.75C19 23.1642 19.3358 23.5 19.75 23.5H24.25C24.6642 23.5 25 23.1642 25 22.75C25 22.3358 24.6642 22 24.25 22H19.75C19.3358 22 19 22.3358 19 22.75Z" fill="#002E5D"/>
<path fill-rule="evenodd" clip-rule="evenodd" d="M21 12.75C21 13.1642 21.3358 13.5 21.75 13.5H32.25C32.6642 13.5 33 13.1642 33 12.75C33 12.3358 32.6642 12 32.25 12H21.75C21.3358 12 21 12.3358 21 12.75Z" fill="#002E5D"/>
<path fill-rule="evenodd" clip-rule="evenodd" d="M39 12.75C39 13.1642 39.3358 13.5 39.75 13.5H50.25C50.6642 13.5 51 13.1642 51 12.75C51 12.3358 50.6642 12 50.25 12H39.75C39.3358 12 39 12.3358 39 12.75Z" fill="#002E5D"/>
<path fill-rule="evenodd" clip-rule="evenodd" d="M19 25.25C19 24.8358 19.3358 24.5 19.75 24.5H21.25C21.6642 24.5 22 24.8358 22 25.25C22 25.6642 21.6642 26 21.25 26H19.75C19.3358 26 19 25.6642 19 25.25Z" fill="#002E5D"/>
</svg>
