<svg width="45" height="48" viewBox="0 0 45 48" fill="none" xmlns="http://www.w3.org/2000/svg">
<path fill-rule="evenodd" clip-rule="evenodd" d="M34.4998 2.40889e-06L34.5704 1.21679e-06C35.9245 -3.41884e-05 37.0411 -6.35162e-05 37.9249 0.118755C38.8527 0.243498 39.6721 0.515466 40.3282 1.17158C40.9843 1.82768 41.2563 2.64711 41.3811 3.57494C41.4999 4.45868 41.4998 5.57527 41.4998 6.92936V6.92943L41.4998 7V13.0659C42.695 13.1631 43.4644 13.4033 43.997 13.9973C44.8912 14.9945 44.7215 16.547 44.3821 19.652L42.2397 39.25V42C42.2397 44.8284 42.2397 46.2426 41.361 47.1213C40.4823 48 39.0681 48 36.2397 48H8.97882C6.15039 48 4.73618 48 3.8575 47.1213C2.97882 46.2426 2.97882 44.8284 2.97882 42V39.25L0.83643 19.652L0.836429 19.652C0.497002 16.547 0.327288 14.9945 1.22147 13.9973C1.72082 13.4403 2.42835 13.1944 3.4998 13.0859V7V6.9294V6.92932C3.49977 5.57525 3.49974 4.45867 3.61856 3.57494C3.7433 2.64711 4.01527 1.82768 4.67138 1.17158C5.32749 0.515466 6.14691 0.243498 7.07474 0.118755C7.9585 -6.35162e-05 9.07511 -3.41884e-05 10.4292 1.21679e-06L10.4998 2.40889e-06H34.4998ZM17.5636 13C18.2421 12.6493 18.8199 12.131 19.2423 11.5H11.7578C12.1802 12.131 12.758 12.6493 13.4365 13H17.5636ZM19.9723 13H25.0278C24.6294 12.5548 24.2964 12.0498 24.0441 11.5H20.956C20.7037 12.0498 20.3707 12.5548 19.9723 13ZM31.5636 13C32.2421 12.6493 32.8199 12.131 33.2423 11.5H25.7578C26.1802 12.131 26.758 12.6493 27.4365 13H31.5636ZM33.9723 13C34.3707 12.5548 34.7037 12.0498 34.956 11.5H35.7498C36.164 11.5 36.4998 11.1642 36.4998 10.75C36.4998 10.3358 36.164 10 35.7498 10H35.4171C35.4716 9.67479 35.5 9.34072 35.5 9C35.5 5.68629 32.8138 3 29.5 3C27.9633 3 26.5616 3.57771 25.5 4.52779C24.2725 5.62643 23.5 7.223 23.5 9C23.5 9.34072 23.5284 9.67479 23.583 10H21.4171C21.4716 9.67479 21.5 9.34072 21.5 9C21.5 5.68629 18.8138 3 15.5 3C12.1863 3 9.50005 5.68629 9.50005 9C9.50005 9.34072 9.52845 9.67479 9.58301 10H9.2498C8.83559 10 8.4998 10.3358 8.4998 10.75C8.4998 11.1642 8.83559 11.5 9.2498 11.5H10.0441C10.2964 12.0498 10.6294 12.5548 11.0278 13L5.4998 13V7C5.4998 5.55752 5.50193 4.57625 5.60072 3.84143C5.69565 3.13538 5.86302 2.80836 6.08559 2.58579C6.30816 2.36322 6.63518 2.19585 7.34124 2.10092C8.07606 2.00213 9.05732 2 10.4998 2H34.4998C35.9423 2 36.9235 2.00213 37.6584 2.10092C38.3644 2.19585 38.6914 2.36322 38.914 2.58579C39.1366 2.80836 39.304 3.13538 39.3989 3.84143C39.4977 4.57625 39.4998 5.55752 39.4998 7V13L33.9723 13ZM34 9C34 9.3437 33.9615 9.67839 33.8885 10H25.1116C25.0386 9.67839 25 9.3437 25 9C25 7.6674 25.5774 6.47162 26.5004 5.64549C27.2975 4.93204 28.3466 4.5 29.5 4.5C31.9853 4.5 34 6.51472 34 9ZM20 9C20 9.3437 19.9615 9.67839 19.8885 10H11.1116C11.0386 9.67839 11 9.3437 11 9C11 6.51472 13.0148 4.5 15.5 4.5C17.9853 4.5 20 6.51472 20 9ZM40.2397 39.141V39.25V42C40.2397 43.4708 40.2354 44.3726 40.1477 45.0253C40.0706 45.599 39.9609 45.6948 39.9478 45.7062L39.9468 45.7071L39.9459 45.7082C39.9345 45.7212 39.8387 45.8309 39.265 45.908C38.6123 45.9958 37.7104 46 36.2397 46H8.97882C7.50807 46 6.6062 45.9958 5.9535 45.908C5.37981 45.8309 5.28402 45.7212 5.27265 45.7082L5.27171 45.7071L5.27066 45.7062C5.25765 45.6948 5.14795 45.599 5.07082 45.0253C4.98306 44.3726 4.97882 43.4708 4.97882 42V39.25V39.141L4.96697 39.0327L3.6516 27H11.9924L12.8218 28.1336L12.9449 28.3019L12.9449 28.302C13.7041 29.3416 14.2813 30.1319 15.1389 30.5671C15.9965 31.0023 16.9752 31.0013 18.2625 31.0001L18.4711 31H26.769L26.9609 31.0001H26.9609C28.151 31.0012 29.0554 31.0019 29.8645 30.6238C30.6736 30.2457 31.2532 29.5514 32.0158 28.6378L32.1389 28.4905L33.2669 27.1415C33.3046 27.0965 33.3376 27.0491 33.366 27H41.5669L40.2515 39.0327L40.2397 39.141ZM30.7781 27H14.4706C15.3851 28.2487 15.6721 28.5949 16.0439 28.7835C16.4203 28.9746 16.8758 29 18.4711 29H26.769C28.2411 29 28.6623 28.978 29.0177 28.8119C29.3731 28.6458 29.6603 28.3368 30.6046 27.2075L30.7781 27ZM12.5107 25H41.7855L42.3939 19.4347C42.5701 17.8229 42.6748 16.8227 42.6531 16.094C42.6334 15.4354 42.5135 15.337 42.5081 15.3326L42.508 15.3324L42.5078 15.3322C42.504 15.3264 42.4193 15.1966 41.7667 15.1054C41.0447 15.0046 40.039 15 38.4176 15H6.8009C5.17951 15 4.17382 15.0046 3.4518 15.1054C2.79928 15.1966 2.71449 15.3264 2.71067 15.3322L2.71054 15.3324L2.71036 15.3326C2.70498 15.337 2.58513 15.4354 2.56545 16.094C2.54368 16.8227 2.64839 17.8229 2.82459 19.4347L3.43321 25.0022C3.45522 25.0007 3.47743 25 3.49981 25H12.4873H12.5107ZM15.4146 7.22324L15.4198 7.223C15.7408 7.2085 16.0597 7.28122 16.3427 7.43344C16.6257 7.58565 16.8622 7.81168 17.027 8.08751L17.0296 8.09195C17.0882 8.19057 17.1368 8.2942 17.1751 8.40132C17.2037 8.48148 17.2419 8.55931 17.2885 8.63089C17.4264 8.84288 17.6374 9 17.8895 9C18.2267 9 18.5063 8.72387 18.4381 8.39361C18.4099 8.25672 18.3721 8.12196 18.325 7.99032C18.2681 7.83115 18.1977 7.67654 18.1142 7.52825C18.1015 7.50571 18.0885 7.48332 18.0753 7.46107C17.7973 6.99588 17.3984 6.61468 16.9212 6.35796C16.4439 6.10124 15.906 5.9786 15.3646 6.00306C15.3388 6.00423 15.3129 6.00573 15.2871 6.00757C15.1174 6.01965 14.9495 6.0461 14.7854 6.08637C14.6496 6.11967 14.5163 6.16242 14.3866 6.2143C14.0734 6.33946 13.9971 6.72497 14.183 7.00634C14.322 7.21669 14.5694 7.30612 14.8222 7.30431C14.9076 7.30369 14.9936 7.29268 15.0763 7.2724C15.1868 7.2453 15.3 7.22875 15.4146 7.22324ZM29.4198 7.223L29.4146 7.22324C29.3 7.22875 29.1868 7.2453 29.0763 7.2724C28.9936 7.29268 28.9076 7.30369 28.8222 7.30431C28.5694 7.30612 28.322 7.21669 28.183 7.00634C27.9971 6.72497 28.0734 6.33946 28.3866 6.2143C28.5163 6.16242 28.6496 6.11967 28.7854 6.08637C28.9495 6.0461 29.1174 6.01965 29.2871 6.00757C29.3129 6.00573 29.3388 6.00423 29.3646 6.00306C29.906 5.9786 30.4439 6.10124 30.9212 6.35796C31.3984 6.61468 31.7973 6.99588 32.0753 7.46107C32.0885 7.48332 32.1015 7.50571 32.1142 7.52825C32.1977 7.67654 32.2681 7.83115 32.325 7.99032C32.3721 8.12196 32.4099 8.25672 32.4381 8.39361C32.5063 8.72387 32.2267 9 31.8895 9C31.6374 9 31.4264 8.84288 31.2885 8.63089C31.242 8.55931 31.2037 8.48148 31.1751 8.40132C31.1368 8.2942 31.0882 8.19057 31.0296 8.09195L31.027 8.08751C30.8622 7.81168 30.6257 7.58565 30.3427 7.43344C30.0597 7.28122 29.7408 7.2085 29.4198 7.223ZM9.1092 21.5C9.93763 21.5 10.6092 20.8284 10.6092 20C10.6092 19.1716 9.93763 18.5 9.1092 18.5C8.28077 18.5 7.6092 19.1716 7.6092 20C7.6092 20.8284 8.28077 21.5 9.1092 21.5ZM9.1092 23C10.7661 23 12.1092 21.6569 12.1092 20C12.1092 18.3432 10.7661 17 9.1092 17C7.45234 17 6.1092 18.3432 6.1092 20C6.1092 21.6569 7.45234 23 9.1092 23ZM20.4998 21C21.0521 21 21.4998 20.5523 21.4998 20C21.4998 19.4477 21.0521 19 20.4998 19C19.9475 19 19.4998 19.4477 19.4998 20C19.4998 20.5523 19.9475 21 20.4998 21ZM26.4998 20C26.4998 20.5523 26.0521 21 25.4998 21C24.9475 21 24.4998 20.5523 24.4998 20C24.4998 19.4477 24.9475 19 25.4998 19C26.0521 19 26.4998 19.4477 26.4998 20ZM16.6092 18.75C16.6092 18.3358 16.2734 18 15.8592 18C15.445 18 15.1092 18.3358 15.1092 18.75V21.25C15.1092 21.6642 15.445 22 15.8592 22C16.2734 22 16.6092 21.6642 16.6092 21.25V18.75Z" fill="#002E5D"/>
</svg>
