<svg width="49" height="58" viewBox="0 0 49 58" fill="none" xmlns="http://www.w3.org/2000/svg">
<path fill-rule="evenodd" clip-rule="evenodd" d="M28.5 6C26.8431 6 25.5 7.34315 25.5 9C25.5 10.6569 26.8431 12 28.5 12H38.5C40.1569 12 41.5 10.6569 41.5 9C41.5 7.34315 40.1569 6 38.5 6H28.5ZM38.5 7.5H28.5C27.6716 7.5 27 8.17158 27 9C27 9.82843 27.6716 10.5 28.5 10.5H38.5C39.3284 10.5 40 9.82843 40 9C40 8.17158 39.3284 7.5 38.5 7.5Z" fill="#002E5D"/>
<path fill-rule="evenodd" clip-rule="evenodd" d="M22.5 9C22.5 10.6569 21.1569 12 19.5 12C17.8431 12 16.5 10.6569 16.5 9C16.5 7.34315 17.8431 6 19.5 6C21.1569 6 22.5 7.34315 22.5 9ZM21 9C21 9.82843 20.3284 10.5 19.5 10.5C18.6716 10.5 18 9.82843 18 9C18 8.17158 18.6716 7.5 19.5 7.5C20.3284 7.5 21 8.17158 21 9Z" fill="#002E5D"/>
<path d="M7.5 7.25C7.5 6.83579 7.83579 6.5 8.25 6.5H8.75C9.16422 6.5 9.5 6.83579 9.5 7.25C9.5 7.66422 9.16422 8 8.75 8H8.25C7.83579 8 7.5 7.66422 7.5 7.25Z" fill="#002E5D"/>
<path d="M8.25 9.5C7.83579 9.5 7.5 9.83579 7.5 10.25C7.5 10.6642 7.83579 11 8.25 11H10.75C11.1642 11 11.5 10.6642 11.5 10.25C11.5 9.83579 11.1642 9.5 10.75 9.5H8.25Z" fill="#002E5D"/>
<path fill-rule="evenodd" clip-rule="evenodd" d="M41.5706 1.16795e-06H7.42943C6.07532 -3.3284e-05 4.95869 -6.16908e-05 4.07494 0.118755C3.14711 0.243499 2.32768 0.515467 1.67158 1.17158C1.01547 1.82768 0.743498 2.64711 0.618754 3.57494C0.499941 4.45867 0.499968 5.57523 0.500001 6.92929V51.0706C0.499968 52.4247 0.499941 53.5413 0.618754 54.4251C0.743498 55.3529 1.01547 56.1723 1.67158 56.8284C2.32768 57.4845 3.14711 57.7565 4.07494 57.8813C4.95867 58.0001 6.07525 58 7.42932 58H41.5706C42.9247 58 44.0413 58.0001 44.9251 57.8813C45.8529 57.7565 46.6723 57.4845 47.3284 56.8284C47.9845 56.1723 48.2565 55.3529 48.3812 54.4251C48.5001 53.5413 48.5 52.4247 48.5 51.0707L48.5 49C48.5 48.4477 48.0523 48 47.5 48C46.9477 48 46.5 48.4477 46.5 49V51C46.5 52.4425 46.4979 53.4238 46.3991 54.1586C46.3042 54.8646 46.1368 55.1916 45.9142 55.4142C45.6916 55.6368 45.3646 55.8042 44.6586 55.8991C43.9237 55.9979 42.9425 56 41.5 56H7.5C6.05752 56 5.07625 55.9979 4.34143 55.8991C3.63538 55.8042 3.30836 55.6368 3.08579 55.4142C2.86322 55.1916 2.69585 54.8646 2.60092 54.1586C2.50213 53.4238 2.5 52.4425 2.5 51V16L46.5 16V41C46.5 41.5523 46.9477 42 47.5 42C48.0523 42 48.5 41.5523 48.5 41L48.5 6.92943C48.5 5.57535 48.5001 4.45868 48.3812 3.57494C48.2565 2.64711 47.9845 1.82768 47.3284 1.17158C46.6723 0.515467 45.8529 0.243499 44.9251 0.118755C44.0413 -6.16908e-05 42.9247 -3.3284e-05 41.5706 1.16795e-06ZM46.5 14.5V7C46.5 5.55752 46.4979 4.57625 46.3991 3.84144C46.3042 3.13538 46.1368 2.80836 45.9142 2.58579C45.6916 2.36322 45.3646 2.19585 44.6586 2.10092C43.9237 2.00213 42.9425 2 41.5 2H14.5L14.5 14.5L46.5 14.5ZM13 14.5L13 2H7.5C6.05752 2 5.07625 2.00213 4.34143 2.10092C3.63538 2.19585 3.30836 2.36322 3.08579 2.58579C2.86322 2.80836 2.69585 3.13538 2.60092 3.84144C2.50213 4.57626 2.5 5.55752 2.5 7V14.5L13 14.5Z" fill="#002E5D"/>
<path d="M23.5 24C22.9477 24 22.5 24.4477 22.5 25C22.5 25.5523 22.9477 26 23.5 26C29.5751 26 34.5 30.9249 34.5 37C34.5 37.5523 34.9477 38 35.5 38C36.0523 38 36.5 37.5523 36.5 37C36.5 29.8203 30.6797 24 23.5 24Z" fill="#002E5D"/>
<path fill-rule="evenodd" clip-rule="evenodd" d="M24.5 52C33.3366 52 40.5 44.8366 40.5 36C40.5 27.1634 33.3366 20 24.5 20C15.6634 20 8.5 27.1634 8.5 36C8.5 44.8366 15.6634 52 24.5 52ZM24.5 50C32.232 50 38.5 43.732 38.5 36C38.5 28.268 32.232 22 24.5 22C16.768 22 10.5 28.268 10.5 36C10.5 43.732 16.768 50 24.5 50Z" fill="#002E5D"/>
</svg>
