<svg width="49" height="58" viewBox="0 0 49 58" fill="none" xmlns="http://www.w3.org/2000/svg">
<path d="M34.5 10.25C34.5 9.83579 34.8358 9.5 35.25 9.5H40.75C41.1642 9.5 41.5 9.83579 41.5 10.25C41.5 10.6642 41.1642 11 40.75 11H35.25C34.8358 11 34.5 10.6642 34.5 10.25Z" fill="#002E5D"/>
<path d="M38.25 8.5C37.8358 8.5 37.5 8.16422 37.5 7.75C37.5 7.33579 37.8358 7 38.25 7L40.75 7C41.1642 7 41.5 7.33579 41.5 7.75C41.5 8.16422 41.1642 8.5 40.75 8.5H38.25Z" fill="#002E5D"/>
<path fill-rule="evenodd" clip-rule="evenodd" d="M7.5 9C7.5 7.34315 8.84315 6 10.5 6H16.5C18.1569 6 19.5 7.34315 19.5 9C19.5 10.6569 18.1569 12 16.5 12H10.5C8.84315 12 7.5 10.6569 7.5 9ZM10.5 7.5H16.5C17.3284 7.5 18 8.17158 18 9C18 9.82843 17.3284 10.5 16.5 10.5H10.5C9.67157 10.5 9 9.82843 9 9C9 8.17158 9.67157 7.5 10.5 7.5Z" fill="#002E5D"/>
<path fill-rule="evenodd" clip-rule="evenodd" d="M25.5 12C27.1569 12 28.5 10.6569 28.5 9C28.5 7.34315 27.1569 6 25.5 6C23.8431 6 22.5 7.34315 22.5 9C22.5 10.6569 23.8431 12 25.5 12ZM25.5 10.5C26.3284 10.5 27 9.82843 27 9C27 8.17158 26.3284 7.5 25.5 7.5C24.6716 7.5 24 8.17158 24 9C24 9.82843 24.6716 10.5 25.5 10.5Z" fill="#002E5D"/>
<path fill-rule="evenodd" clip-rule="evenodd" d="M41.5706 1.16795e-06C42.9247 -3.3284e-05 44.0413 -6.16908e-05 44.9251 0.118755C45.8529 0.243499 46.6723 0.515467 47.3284 1.17158C47.9845 1.82768 48.2565 2.64711 48.3812 3.57494C48.5001 4.4587 48.5 5.57531 48.5 6.92943V21C48.5 21.5523 48.0523 22 47.5 22C46.9477 22 46.5 21.5523 46.5 21V16L2.5 16V51C2.5 52.4425 2.50213 53.4238 2.60092 54.1586C2.69584 54.8646 2.86322 55.1916 3.08579 55.4142C3.30836 55.6368 3.63538 55.8042 4.34143 55.8991C5.07625 55.9979 6.05752 56 7.5 56H41.5C42.9425 56 43.9237 55.9979 44.6586 55.8991C45.3646 55.8042 45.6916 55.6368 45.9142 55.4142C46.1368 55.1916 46.3042 54.8646 46.3991 54.1586C46.4979 53.4238 46.5 52.4425 46.5 51V29C46.5 28.4477 46.9477 28 47.5 28C48.0523 28 48.5 28.4477 48.5 29V51.0706C48.5 52.4247 48.5001 53.5413 48.3812 54.4251C48.2565 55.3529 47.9845 56.1723 47.3284 56.8284C46.6723 57.4845 45.8529 57.7565 44.9251 57.8813C44.0413 58.0001 42.9247 58 41.5707 58H7.42939C6.07533 58 4.95867 58.0001 4.07494 57.8813C3.14711 57.7565 2.32768 57.4845 1.67158 56.8284C1.01547 56.1723 0.743497 55.3529 0.618753 54.4251C0.499939 53.5413 0.499967 52.4248 0.500001 51.0707V6.9294C0.499967 5.57533 0.499939 4.45867 0.618753 3.57494C0.743497 2.64711 1.01547 1.82768 1.67157 1.17158C2.32768 0.515467 3.14711 0.243499 4.07494 0.118755C4.95869 -6.16908e-05 6.07529 -3.3284e-05 7.4294 1.16795e-06H41.5706ZM46.5 7V14.5L32.5 14.5V2H41.5C42.9425 2 43.9237 2.00213 44.6586 2.10092C45.3646 2.19585 45.6916 2.36322 45.9142 2.58579C46.1368 2.80836 46.3042 3.13538 46.3991 3.84144C46.4979 4.57626 46.5 5.55752 46.5 7ZM31 2V14.5L2.5 14.5V7C2.5 5.55752 2.50213 4.57626 2.60092 3.84144C2.69584 3.13538 2.86322 2.80836 3.08579 2.58579C3.30836 2.36322 3.63538 2.19585 4.34143 2.10092C5.07625 2.00213 6.05752 2 7.5 2H31Z" fill="#002E5D"/>
<path d="M33.7929 41.7781C34.1834 42.1687 34.1834 42.8018 33.7929 43.1923C28.7161 48.2692 20.4849 48.2692 15.4081 43.1923C15.0176 42.8018 15.0176 42.1687 15.4081 41.7781C15.7986 41.3876 16.4318 41.3876 16.8223 41.7781C21.1181 46.0739 28.0829 46.0739 32.3787 41.7781C32.7692 41.3876 33.4024 41.3876 33.7929 41.7781Z" fill="#002E5D"/>
<path d="M30.7929 39.364C31.1834 38.9734 31.1834 38.3403 30.7929 37.9498C30.4024 37.5592 29.7692 37.5592 29.3787 37.9498C26.645 40.6834 22.2129 40.6834 19.4792 37.9498C19.0887 37.5592 18.4555 37.5592 18.065 37.9498C17.6744 38.3403 17.6744 38.9734 18.065 39.364C21.5797 42.8787 27.2782 42.8787 30.7929 39.364Z" fill="#002E5D"/>
<path fill-rule="evenodd" clip-rule="evenodd" d="M40.5 36C40.5 44.8366 33.3366 52 24.5 52C15.6634 52 8.5 44.8366 8.5 36C8.5 27.1634 15.6634 20 24.5 20C33.3366 20 40.5 27.1634 40.5 36ZM38.5 36C38.5 43.732 32.232 50 24.5 50C16.768 50 10.5 43.732 10.5 36C10.5 28.268 16.768 22 24.5 22C32.232 22 38.5 28.268 38.5 36Z" fill="#002E5D"/>
</svg>
