<svg width="49" height="48" viewBox="0 0 49 48" fill="none" xmlns="http://www.w3.org/2000/svg">
<path fill-rule="evenodd" clip-rule="evenodd" d="M41.5002 3.54006e-06L41.5708 1.15588e-06H41.5708C42.9249 -3.30577e-05 44.0415 -6.12736e-05 44.9253 0.118756C45.8531 0.243499 46.6725 0.515468 47.3287 1.17158C47.9848 1.82769 48.2567 2.64711 48.3815 3.57494C48.5003 4.45868 48.5003 5.57527 48.5002 6.92936V6.92943L48.5002 7V17.4287C48.5002 17.9809 48.0525 18.4287 47.5002 18.4287C46.9479 18.4287 46.5002 17.9809 46.5002 17.4287V7C46.5002 5.55752 46.4981 4.57626 46.3993 3.84144C46.3044 3.13538 46.137 2.80836 45.9144 2.58579C45.6919 2.36322 45.3648 2.19585 44.6588 2.10092C43.924 2.00213 42.9427 2 41.5002 2H7.5C6.05752 2 5.07625 2.00213 4.34144 2.10092C3.63538 2.19585 3.30836 2.36322 3.08579 2.58579C2.86322 2.80836 2.69585 3.13538 2.60092 3.84144C2.50213 4.57626 2.5 5.55752 2.5 7V36.4644L46.5002 36.4644V24.0001C46.5002 23.4478 46.9479 23.0001 47.5002 23.0001C48.0525 23.0001 48.5002 23.4478 48.5002 24.0001V41.0002L48.5002 41.0708V41.0709C48.5003 42.425 48.5003 43.5415 48.3815 44.4253C48.2567 45.3531 47.9848 46.1725 47.3287 46.8287C46.6725 47.4848 45.8531 47.7567 44.9253 47.8815C44.0416 48.0003 42.925 48.0003 41.5709 48.0002H41.5708H41.5002H7.50001H7.4294H7.42932C6.07525 48.0003 4.95868 48.0003 4.07494 47.8815C3.14711 47.7567 2.32769 47.4848 1.67158 46.8287C1.01547 46.1725 0.743498 45.3531 0.618754 44.4253C0.499941 43.5416 0.499968 42.425 0.500001 41.0709V41.0708V41.0002V7V6.9294V6.92929C0.499968 5.57523 0.499941 4.45867 0.618754 3.57494C0.743498 2.64711 1.01547 1.82768 1.67158 1.17158C2.32768 0.515468 3.14711 0.243499 4.07494 0.118756C4.95869 -6.12661e-05 6.07529 -3.30577e-05 7.42939 1.15588e-06H7.42943L7.5 3.54006e-06H41.5002ZM46.5002 37.9644L2.5 37.9644V41.0002C2.5 42.4427 2.50213 43.424 2.60092 44.1588C2.69585 44.8648 2.86322 45.1919 3.08579 45.4144C3.30836 45.637 3.63538 45.8044 4.34144 45.8993C5.07626 45.9981 6.05752 46.0002 7.50001 46.0002H41.5002C42.9427 46.0002 43.924 45.9981 44.6588 45.8993C45.3648 45.8044 45.6919 45.637 45.9144 45.4144C46.137 45.1919 46.3044 44.8648 46.3993 44.1588C46.4981 43.424 46.5002 42.4427 46.5002 41.0002V37.9644ZM38.8756 42.0718C38.8756 42.7524 38.3239 43.3041 37.6433 43.3041C36.9628 43.3041 36.411 42.7524 36.411 42.0718C36.411 41.3912 36.9628 40.8395 37.6433 40.8395C38.3239 40.8395 38.8756 41.3912 38.8756 42.0718ZM40.1079 42.0718C40.1079 43.4329 39.0045 44.5364 37.6433 44.5364C36.2822 44.5364 35.1788 43.4329 35.1788 42.0718C35.1788 40.7106 36.2822 39.6072 37.6433 39.6072C39.0045 39.6072 40.1079 40.7106 40.1079 42.0718ZM10.536 43.304C11.2166 43.304 11.7683 42.7523 11.7683 42.0718C11.7683 41.3912 11.2166 40.8395 10.536 40.8395C9.85545 40.8395 9.30374 41.3912 9.30374 42.0718C9.30374 42.7523 9.85545 43.304 10.536 43.304ZM10.536 44.5363C11.8972 44.5363 13.0006 43.4329 13.0006 42.0718C13.0006 40.7106 11.8972 39.6072 10.536 39.6072C9.17488 39.6072 8.07146 40.7106 8.07146 42.0718C8.07146 43.4329 9.17488 44.5363 10.536 44.5363ZM20.8051 42.0718C20.8051 42.7523 20.2534 43.3041 19.5728 43.3041C18.8922 43.3041 18.3405 42.7523 18.3405 42.0718C18.3405 41.3912 18.8922 40.8395 19.5728 40.8395C20.2534 40.8395 20.8051 41.3912 20.8051 42.0718ZM22.0374 42.0718C22.0374 43.4329 20.9339 44.5364 19.5728 44.5364C18.2116 44.5364 17.1082 43.4329 17.1082 42.0718C17.1082 40.7106 18.2116 39.6072 19.5728 39.6072C20.9339 39.6072 22.0374 40.7106 22.0374 42.0718ZM28.6076 43.3041C29.2881 43.3041 29.8398 42.7524 29.8398 42.0718C29.8398 41.3912 29.2881 40.8395 28.6076 40.8395C27.927 40.8395 27.3753 41.3912 27.3753 42.0718C27.3753 42.7524 27.927 43.3041 28.6076 43.3041ZM28.6076 44.5364C29.9687 44.5364 31.0721 43.4329 31.0721 42.0718C31.0721 40.7106 29.9687 39.6072 28.6076 39.6072C27.2464 39.6072 26.143 40.7106 26.143 42.0718C26.143 43.4329 27.2464 44.5364 28.6076 44.5364ZM38.0598 29.4612C38.6128 28.6879 38.9381 27.7409 38.9381 26.7178C38.9381 25.6941 38.6124 24.7466 38.0589 23.9731L38.0374 23.9947C37.7336 24.2984 37.2412 24.2984 36.9374 23.9947C36.6337 23.6909 36.6337 23.1984 36.9374 22.8947L36.9586 22.8735C36.1856 22.3211 35.239 21.9961 34.2164 21.9961C33.1934 21.9961 32.2463 22.3214 31.4731 22.8744L31.4939 22.8952C31.7976 23.1989 31.7976 23.6914 31.4939 23.9951C31.1901 24.2989 30.6977 24.2989 30.3939 23.9951L30.3731 23.9743C29.8202 24.7476 29.4948 25.6947 29.4948 26.7178C29.4948 27.7404 29.8198 28.687 30.3722 29.46L30.3936 29.4387C30.6973 29.135 31.1898 29.135 31.4935 29.4387C31.7973 29.7425 31.7973 30.2349 31.4935 30.5387L31.4719 30.5603C32.2453 31.1138 33.1928 31.4395 34.2164 31.4395C35.2395 31.4395 36.1866 31.1141 36.9599 30.5611L36.9374 30.5387C36.6337 30.2349 36.6337 29.7425 36.9374 29.4387C37.2412 29.135 37.7336 29.135 38.0374 29.4387L38.0598 29.4612ZM38.0303 21.8018C36.977 20.9834 35.6536 20.4961 34.2164 20.4961C32.7787 20.4961 31.4549 20.9837 30.4014 21.8026L29.294 20.6952C28.9902 20.3915 28.4977 20.3915 28.194 20.6952C27.8902 20.999 27.8902 21.4914 28.194 21.7952L29.3014 22.9026C28.4824 23.9562 27.9948 25.28 27.9948 26.7178C27.9948 28.155 28.4821 29.4784 29.3005 30.5318L28.1936 31.6387C27.8899 31.9424 27.8899 32.4349 28.1936 32.7386C28.4974 33.0424 28.9899 33.0424 29.2936 32.7386L30.4002 31.632C31.4539 32.4515 32.7782 32.9395 34.2164 32.9395C35.6542 32.9395 36.978 32.4518 38.0316 31.6328L39.1374 32.7386C39.4411 33.0424 39.9336 33.0424 40.2373 32.7386C40.5411 32.4349 40.5411 31.9424 40.2373 31.6387L39.1315 30.5329C39.9505 29.4793 40.4381 28.1555 40.4381 26.7178C40.4381 25.2795 39.9501 23.9552 39.1306 22.9015L40.2373 21.7947C40.5411 21.491 40.5411 20.9985 40.2373 20.6947C39.9336 20.391 39.4411 20.391 39.1374 20.6947L38.0303 21.8018ZM34.2162 27.551C34.6765 27.551 35.0496 27.1779 35.0496 26.7176C35.0496 26.2573 34.6765 25.8842 34.2162 25.8842C33.7559 25.8842 33.3828 26.2573 33.3828 26.7176C33.3828 27.1779 33.7559 27.551 34.2162 27.551ZM34.2162 29.051C35.5049 29.051 36.5496 28.0063 36.5496 26.7176C36.5496 25.4289 35.5049 24.3842 34.2162 24.3842C32.9275 24.3842 31.8828 25.4289 31.8828 26.7176C31.8828 28.0063 32.9275 29.051 34.2162 29.051ZM18.9162 29.4612C19.4691 28.6879 19.7945 27.7408 19.7945 26.7178C19.7945 25.6942 19.4687 24.7466 18.9153 23.9731L18.8937 23.9947C18.59 24.2984 18.0975 24.2984 17.7938 23.9947C17.49 23.6909 17.49 23.1984 17.7938 22.8947L17.8149 22.8735C17.0419 22.3211 16.0953 21.9961 15.0728 21.9961C14.0497 21.9961 13.1027 22.3214 12.3294 22.8743L12.3503 22.8952C12.654 23.1989 12.654 23.6914 12.3503 23.9951C12.0465 24.2989 11.554 24.2989 11.2503 23.9951L11.2294 23.9743C10.6765 24.7476 10.3511 25.6947 10.3511 26.7178C10.3511 27.7404 10.6761 28.687 11.2286 29.4601L11.2499 29.4387C11.5537 29.135 12.0461 29.135 12.3499 29.4387C12.6536 29.7425 12.6536 30.2349 12.3499 30.5387L12.3282 30.5604C13.1017 31.1138 14.0492 31.4395 15.0728 31.4395C16.0959 31.4395 17.043 31.1141 17.8162 30.5611L17.7938 30.5387C17.49 30.2349 17.49 29.7425 17.7938 29.4387C18.0975 29.135 18.59 29.135 18.8937 29.4387L18.9162 29.4612ZM18.8867 21.8018C17.8333 20.9834 16.51 20.4961 15.0728 20.4961C13.6351 20.4961 12.3113 20.9837 11.2577 21.8026L10.1503 20.6952C9.84657 20.3915 9.35409 20.3915 9.05035 20.6952C8.7466 20.999 8.7466 21.4914 9.05035 21.7952L10.1577 22.9026C9.33877 23.9562 8.85109 25.28 8.85109 26.7178C8.85109 28.155 9.33841 29.4784 10.1568 30.5318L9.04999 31.6387C8.74624 31.9424 8.74624 32.4349 9.04999 32.7386C9.35373 33.0424 9.84621 33.0424 10.15 32.7386L11.2566 31.632C12.3103 32.4515 13.6345 32.9395 15.0728 32.9395C16.5105 32.9395 17.8344 32.4518 18.8879 31.6328L19.9937 32.7386C20.2974 33.0424 20.7899 33.0424 21.0937 32.7386C21.3974 32.4349 21.3974 31.9424 21.0937 31.6387L19.9879 30.5329C20.8068 29.4793 21.2945 28.1555 21.2945 26.7178C21.2945 25.2795 20.8064 23.9552 19.9869 22.9015L21.0937 21.7947C21.3974 21.491 21.3974 20.9985 21.0937 20.6947C20.7899 20.391 20.2974 20.391 19.9937 20.6947L18.8867 21.8018ZM15.0726 27.551C15.5328 27.551 15.9059 27.1779 15.9059 26.7176C15.9059 26.2573 15.5328 25.8842 15.0726 25.8842C14.6123 25.8842 14.2392 26.2573 14.2392 26.7176C14.2392 27.1779 14.6123 27.551 15.0726 27.551ZM15.0726 29.051C16.3613 29.051 17.4059 28.0063 17.4059 26.7176C17.4059 25.4289 16.3613 24.3842 15.0726 24.3842C13.7839 24.3842 12.7392 25.4289 12.7392 26.7176C12.7392 28.0063 13.7839 29.051 15.0726 29.051ZM18.9168 14.3172C19.4698 13.5439 19.7953 12.5968 19.7953 11.5736C19.7953 10.5496 19.4694 9.60177 18.9156 8.82817L18.8937 8.85C18.59 9.15375 18.0975 9.15375 17.7938 8.85C17.49 8.54625 17.49 8.05377 17.7938 7.75003L17.815 7.72875C17.0422 7.17668 16.0958 6.85185 15.0736 6.85185C14.0505 6.85185 13.1034 7.17726 12.3301 7.73023L12.3499 7.75003C12.6537 8.05377 12.6537 8.54625 12.3499 8.85C12.0462 9.15375 11.5537 9.15375 11.2499 8.85L11.2302 8.83023C10.6773 9.60346 10.3519 10.5505 10.3519 11.5736C10.3519 12.5959 10.6768 13.5423 11.2289 14.3152L11.2499 14.2942C11.5537 13.9904 12.0462 13.9904 12.3499 14.2942C12.6537 14.5979 12.6537 15.0904 12.3499 15.3941L12.3284 15.4157C13.102 15.9694 14.0497 16.2953 15.0736 16.2953C16.0966 16.2953 17.0436 15.97 17.8168 15.4171L17.7938 15.3941C17.49 15.0904 17.49 14.5979 17.7938 14.2942C18.0975 13.9904 18.59 13.9904 18.8937 14.2942L18.9168 14.3172ZM18.8868 6.65698C17.8336 5.83893 16.5105 5.35185 15.0736 5.35185C13.6358 5.35185 12.312 5.83955 11.2584 6.65853L10.15 5.55007C9.84622 5.24633 9.35375 5.24632 9.05 5.55007C8.74625 5.85382 8.74625 6.3463 9.05 6.65005L10.1585 7.75853C9.33957 8.81206 8.85192 10.1359 8.85192 11.5736C8.85192 13.0105 9.33905 14.3337 10.1572 15.3869L9.05 16.4941C8.74625 16.7979 8.74625 17.2903 9.05 17.5941C9.35375 17.8979 9.84622 17.8979 10.15 17.5941L11.2568 16.4873C12.3106 17.3071 13.6351 17.7953 15.0736 17.7953C16.5112 17.7953 17.835 17.3077 18.8885 16.4889L19.9937 17.5941C20.2974 17.8979 20.7899 17.8979 21.0937 17.5941C21.3974 17.2903 21.3974 16.7979 21.0937 16.4941L19.9885 15.3889C20.8075 14.3354 21.2953 13.0114 21.2953 11.5736C21.2953 10.135 20.807 8.81039 19.9872 7.75653L21.0937 6.65005C21.3974 6.3463 21.3974 5.85382 21.0937 5.55007C20.7899 5.24632 20.2974 5.24633 19.9937 5.55007L18.8868 6.65698ZM15.0721 12.406C15.5323 12.406 15.9055 12.0328 15.9055 11.5726C15.9055 11.1123 15.5323 10.7392 15.0721 10.7392C14.6118 10.7392 14.2387 11.1123 14.2387 11.5726C14.2387 12.0328 14.6118 12.406 15.0721 12.406ZM15.0721 13.906C16.3608 13.906 17.4055 12.8613 17.4055 11.5726C17.4055 10.2839 16.3608 9.23915 15.0721 9.23915C13.7834 9.23915 12.7387 10.2839 12.7387 11.5726C12.7387 12.8613 13.7834 13.906 15.0721 13.906ZM38.0595 14.3164C38.6124 13.5432 38.9378 12.5961 38.9378 11.573C38.9378 10.5493 38.6121 9.6018 38.0587 8.82833L38.0371 8.84988C37.7334 9.15363 37.2409 9.15363 36.9371 8.84988C36.6334 8.54613 36.6334 8.05365 36.9371 7.7499L36.9583 7.7287C36.1853 7.17629 35.2387 6.85124 34.2161 6.85124C33.193 6.85124 32.246 7.17662 31.4727 7.72954L31.4936 7.75038C31.7973 8.05413 31.7973 8.54661 31.4936 8.85036C31.1898 9.15411 30.6973 9.15411 30.3936 8.85036L30.3727 8.82951C29.8198 9.60276 29.4944 10.5499 29.4944 11.573C29.4944 12.5959 29.8197 13.5429 30.3725 14.316L30.3936 14.2949C30.6973 13.9912 31.1898 13.9912 31.4936 14.2949C31.7973 14.5987 31.7973 15.0912 31.4936 15.3949L31.4724 15.4161C32.2457 15.9692 33.1929 16.2947 34.2161 16.2947C35.2392 16.2947 36.1862 15.9693 36.9595 15.4164L36.9371 15.394C36.6334 15.0903 36.6334 14.5978 36.9371 14.2941C37.2409 13.9903 37.7334 13.9903 38.0371 14.2941L38.0595 14.3164ZM38.0301 6.65695C36.9767 5.83855 35.6533 5.35124 34.2161 5.35124C32.7784 5.35124 31.4546 5.8389 30.401 6.65784L29.2936 5.55043C28.9899 5.24668 28.4974 5.24668 28.1936 5.55043C27.8899 5.85418 27.8899 6.34666 28.1936 6.65041L29.301 7.75781C28.4821 8.81136 27.9944 10.1352 27.9944 11.573C27.9944 13.0105 28.482 14.3343 29.3008 15.3878L28.1936 16.4949C27.8899 16.7986 27.8899 17.2911 28.1936 17.5949C28.4974 17.8986 28.9899 17.8986 29.2936 17.5949L30.4007 16.4878C31.4543 17.3069 32.7782 17.7947 34.2161 17.7947C35.6538 17.7947 36.9776 17.307 38.0312 16.4881L39.1371 17.594C39.4408 17.8977 39.9333 17.8977 40.2371 17.594C40.5408 17.2902 40.5408 16.7978 40.2371 16.494L39.1312 15.3881C39.9501 14.3346 40.4378 13.0107 40.4378 11.573C40.4378 10.1347 39.9498 8.8104 39.1303 7.75667L40.2371 6.64993C40.5408 6.34618 40.5408 5.8537 40.2371 5.54995C39.9333 5.2462 39.4408 5.2462 39.1371 5.54995L38.0301 6.65695ZM34.2159 12.4062C34.6762 12.4062 35.0493 12.0331 35.0493 11.5728C35.0493 11.1126 34.6762 10.7394 34.2159 10.7394C33.7556 10.7394 33.3825 11.1126 33.3825 11.5728C33.3825 12.0331 33.7556 12.4062 34.2159 12.4062ZM34.2159 13.9062C35.5046 13.9062 36.5493 12.8615 36.5493 11.5728C36.5493 10.2841 35.5046 9.23943 34.2159 9.23943C32.9272 9.23943 31.8825 10.2841 31.8825 11.5728C31.8825 12.8615 32.9272 13.9062 34.2159 13.9062Z" fill="#002E5D"/>
</svg>
