<svg width="35" height="56" viewBox="0 0 35 56" fill="none" xmlns="http://www.w3.org/2000/svg">
<path fill-rule="evenodd" clip-rule="evenodd" d="M17.5 32.51C25.7563 32.51 32.5 25.7083 32.5 17.255C32.5 8.80171 25.7563 2 17.5 2C9.2437 2 2.5 8.80171 2.5 17.255C2.5 25.7083 9.2437 32.51 17.5 32.51ZM17.5 34.51C26.8888 34.51 34.5 26.7846 34.5 17.255C34.5 7.72532 26.8888 0 17.5 0C8.11116 0 0.5 7.72532 0.5 17.255C0.5 25.3515 5.99403 32.1456 13.4045 34.0059L13.4045 48.1113C13.3458 48.2386 13.3131 48.3803 13.3131 48.5297C13.3131 49.0819 13.7608 49.5297 14.3131 49.5297H27.0153C28.2498 49.5297 29.2506 50.5304 29.2506 51.765C29.2506 52.9995 28.2498 54.0003 27.0153 54.0003H7.98589C6.75137 54.0003 5.75059 52.9995 5.75059 51.765C5.75059 50.5304 6.75137 49.5297 7.9859 49.5297H9.56172C10.114 49.5297 10.5617 49.0819 10.5617 48.5297C10.5617 47.9774 10.114 47.5297 9.56172 47.5297H7.9859C5.6468 47.5297 3.75059 49.4259 3.75059 51.765C3.75059 54.1041 5.6468 56.0003 7.98589 56.0003H27.0153C29.3544 56.0003 31.2506 54.1041 31.2506 51.765C31.2506 49.4259 29.3544 47.5297 27.0153 47.5297H21.7798V37.6518C21.7798 37.0995 21.332 36.6518 20.7798 36.6518C20.2275 36.6518 19.7798 37.0995 19.7798 37.6518V47.5297H15.4045L15.4045 34.3802C16.0912 34.4659 16.7905 34.51 17.5 34.51ZM20.2499 17.255C20.2499 18.8301 18.9977 20.0687 17.4999 20.0687C16.0021 20.0687 14.7499 18.8301 14.7499 17.255C14.7499 15.6799 16.0021 14.4413 17.4999 14.4413C18.9977 14.4413 20.2499 15.6799 20.2499 17.255ZM21.0913 19.5627C20.3376 20.7685 19.0109 21.5687 17.4999 21.5687C17.2319 21.5687 16.9696 21.5436 16.7154 21.4954V22.4761C16.7154 24.4259 16.116 26.3286 14.9985 27.9264C14.8685 28.1124 15.0015 28.3678 15.2285 28.3678H18.6634C19.5207 28.3678 20.2722 27.7943 20.4985 26.9674C20.8025 25.8567 20.7624 24.68 20.3837 23.5925L20.2154 23.1095C20.0792 22.7184 20.2858 22.2908 20.677 22.1546C21.0682 22.0183 21.4957 22.225 21.632 22.6161L21.8002 23.0991C22.2788 24.4731 22.3294 25.96 21.9453 27.3633C21.5406 28.8422 20.1967 29.8678 18.6634 29.8678H15.2285C13.7883 29.8678 12.9439 28.2469 13.7693 27.0667C14.7106 25.7209 15.2154 24.1184 15.2154 22.4761V20.8931C14.0336 20.127 13.2499 18.7839 13.2499 17.255C13.2499 16.9789 13.2755 16.7089 13.3243 16.4472H12.3918C10.4439 16.4472 8.54549 15.8345 6.96517 14.6959C6.79725 14.5749 6.5629 14.6949 6.5629 14.9018L6.5629 18.5291C6.5629 19.3533 7.11076 20.077 7.90398 20.3006C9.01392 20.6136 10.1938 20.5724 11.2793 20.1829L11.7221 20.024C12.112 19.8841 12.5414 20.0868 12.6813 20.4766C12.8212 20.8665 12.6186 21.296 12.2287 21.4359L11.7859 21.5948C10.4066 22.0897 8.90732 22.142 7.49693 21.7443C6.05726 21.3384 5.0629 20.0249 5.0629 18.5291L5.0629 14.9018C5.0629 13.472 6.68196 12.643 7.84204 13.4789C9.167 14.4335 10.7587 14.9472 12.3918 14.9472H13.9086C14.6622 13.7415 15.989 12.9413 17.4999 12.9413C17.768 12.9413 18.0303 12.9664 18.2846 13.0146V12.0338C18.2846 10.084 18.884 8.18129 20.0015 6.58349C20.1315 6.39752 19.9985 6.14212 19.7716 6.14212H16.3367C15.4793 6.14212 14.7278 6.71556 14.5015 7.54253C14.1975 8.65319 14.2376 9.82993 14.6164 10.9174L14.7846 11.4004C14.9208 11.7915 14.7142 12.2191 14.323 12.3553C13.9318 12.4916 13.5043 12.2849 13.368 11.8937L13.1998 11.4108C12.7212 10.0368 12.6706 8.54993 13.0547 7.14658C13.4594 5.66765 14.8033 4.64212 16.3367 4.64212H19.7716C21.2117 4.64212 22.0561 6.26299 21.2307 7.44317C20.2895 8.78896 19.7846 10.3915 19.7846 12.0338V13.617C20.9664 14.3831 21.7499 15.7262 21.7499 17.255C21.7499 17.5311 21.7244 17.8011 21.6755 18.0627H23.0252C24.7023 18.0627 26.3369 18.5903 27.6976 19.5707L28.0354 19.8141C28.2033 19.9351 28.4377 19.8151 28.4377 19.6081V15.9808C28.4377 15.1567 27.8898 14.433 27.0966 14.2094C25.9867 13.8964 24.8067 13.9376 23.7213 14.3271L23.2785 14.486C22.8886 14.6259 22.4592 14.4232 22.3193 14.0333C22.1794 13.6435 22.382 13.214 22.7719 13.0741L23.2147 12.9152C24.5939 12.4203 26.0933 12.368 27.5036 12.7656C28.9433 13.1716 29.9377 14.485 29.9377 15.9808V19.6081C29.9377 21.038 28.3186 21.867 27.1585 21.0311L26.8207 20.7877C25.7154 19.9913 24.3875 19.5627 23.0252 19.5627H21.0913Z" fill="#002E5D"/>
</svg>
