<svg width="16" height="16" viewBox="0 0 16 16" fill="none" xmlns="http://www.w3.org/2000/svg">
<path d="M0 7.88889C0 8.44117 0.447715 8.88889 1 8.88889H6.11111C6.6634 8.88889 7.11111 8.44117 7.11111 7.88889V1C7.11111 0.447716 6.6634 0 6.11111 0H1C0.447715 0 0 0.447715 0 1V7.88889ZM0 15C0 15.5523 0.447715 16 1 16H6.11111C6.6634 16 7.11111 15.5523 7.11111 15V11.6667C7.11111 11.1144 6.6634 10.6667 6.11111 10.6667H1C0.447715 10.6667 0 11.1144 0 11.6667V15ZM8.88889 15C8.88889 15.5523 9.3366 16 9.88889 16H15C15.5523 16 16 15.5523 16 15V8.11111C16 7.55883 15.5523 7.11111 15 7.11111H9.88889C9.3366 7.11111 8.88889 7.55883 8.88889 8.11111V15ZM9.88889 0C9.3366 0 8.88889 0.447715 8.88889 1V4.33333C8.88889 4.88562 9.3366 5.33333 9.88889 5.33333H15C15.5523 5.33333 16 4.88562 16 4.33333V1C16 0.447716 15.5523 0 15 0H9.88889Z" fill="#002E5D"/>
</svg>
