<svg width="14" height="14" viewBox="0 0 14 14" fill="none" xmlns="http://www.w3.org/2000/svg">
<circle cx="7" cy="7" r="7" fill="#FF6644"/>
<path d="M9.03906 10H5.32031C5.32031 9.65365 5.3724 9.33984 5.47656 9.05859C5.58073 8.77474 5.71615 8.53906 5.88281 8.35156C6.05208 8.16406 6.23698 7.99219 6.4375 7.83594C6.64062 7.67969 6.84245 7.53776 7.04297 7.41016C7.24349 7.27995 7.42708 7.15234 7.59375 7.02734C7.76302 6.90234 7.89974 6.75651 8.00391 6.58984C8.10807 6.42057 8.16016 6.23698 8.16016 6.03906C8.16016 5.75521 8.07161 5.53125 7.89453 5.36719C7.72005 5.20312 7.47526 5.12109 7.16016 5.12109C7.00651 5.12109 6.86198 5.14974 6.72656 5.20703C6.59375 5.26172 6.48958 5.32812 6.41406 5.40625C6.34115 5.48177 6.27604 5.55859 6.21875 5.63672C6.16406 5.71484 6.1263 5.78255 6.10547 5.83984L6.07812 5.92188L5.35938 5.60156C5.36979 5.5651 5.38411 5.51823 5.40234 5.46094C5.42318 5.40365 5.47786 5.30208 5.56641 5.15625C5.65755 5.01042 5.76302 4.88151 5.88281 4.76953C6.0026 4.65755 6.17578 4.55469 6.40234 4.46094C6.62891 4.36719 6.88151 4.32031 7.16016 4.32031C7.70964 4.32031 8.16016 4.48568 8.51172 4.81641C8.86328 5.14714 9.03906 5.55469 9.03906 6.03906C9.03906 6.29427 8.98698 6.53125 8.88281 6.75C8.77865 6.96875 8.64583 7.15234 8.48438 7.30078C8.32552 7.44661 8.14193 7.59766 7.93359 7.75391C7.72786 7.90755 7.52734 8.04818 7.33203 8.17578C7.13672 8.30339 6.94401 8.45703 6.75391 8.63672C6.56641 8.8138 6.42188 9.0013 6.32031 9.19922H9.03906V10Z" fill="white"/>
</svg>
