<svg width="20" height="16" viewBox="0 0 20 16" fill="none" xmlns="http://www.w3.org/2000/svg">
<path d="M10 0.5C14.4933 0.5 18.2317 3.73333 19.0158 8C18.2325 12.2667 14.4933 15.5 10 15.5C5.50666 15.5 1.76833 12.2667 0.984161 8C1.76749 3.73333 5.50666 0.5 10 0.5ZM10 13.8333C11.6996 13.833 13.3486 13.2557 14.6774 12.196C16.0061 11.1363 16.9357 9.65689 17.3142 8C16.9344 6.34442 16.0041 4.86667 14.6755 3.80835C13.3469 2.75004 11.6986 2.17377 10 2.17377C8.30141 2.17377 6.65307 2.75004 5.32447 3.80835C3.99588 4.86667 3.06563 6.34442 2.68583 8C3.06424 9.65689 3.99389 11.1363 5.32262 12.196C6.65134 13.2557 8.30044 13.833 10 13.8333ZM10 11.75C9.00543 11.75 8.05161 11.3549 7.34835 10.6516C6.64508 9.94839 6.25 8.99456 6.25 8C6.25 7.00544 6.64508 6.05161 7.34835 5.34835C8.05161 4.64509 9.00543 4.25 10 4.25C10.9946 4.25 11.9484 4.64509 12.6516 5.34835C13.3549 6.05161 13.75 7.00544 13.75 8C13.75 8.99456 13.3549 9.94839 12.6516 10.6516C11.9484 11.3549 10.9946 11.75 10 11.75ZM10 10.0833C10.5525 10.0833 11.0824 9.86384 11.4731 9.47314C11.8638 9.08244 12.0833 8.55253 12.0833 8C12.0833 7.44747 11.8638 6.91756 11.4731 6.52686C11.0824 6.13616 10.5525 5.91667 10 5.91667C9.44746 5.91667 8.91756 6.13616 8.52686 6.52686C8.13616 6.91756 7.91666 7.44747 7.91666 8C7.91666 8.55253 8.13616 9.08244 8.52686 9.47314C8.91756 9.86384 9.44746 10.0833 10 10.0833Z" fill="#002E5D"/>
</svg>
