<svg width="24" height="24" viewBox="0 0 24 24" fill="none" xmlns="http://www.w3.org/2000/svg">
<circle cx="12" cy="12" r="11.75" stroke="#E5E5E5" stroke-width="0.5"/>
<path d="M11.2598 10.4219C10.6973 10.4219 10.2578 10.5215 9.94141 10.7207L10.0586 9.16211H13.5391V7.59766H8.44141L8.14258 12.4023L9.40234 12.5195L9.53125 12.3496C9.61914 12.2441 9.77734 12.1328 10.0059 12.0215C10.2285 11.916 10.4863 11.8574 10.7793 11.8574C11.1953 11.8574 11.541 11.9922 11.8105 12.2559C12.0801 12.5254 12.2148 12.8535 12.2148 13.2402C12.2148 13.6328 12.0918 13.9492 11.834 14.1953C11.5762 14.4414 11.2246 14.5586 10.7734 14.5586C10.4219 14.5586 10.082 14.4824 9.74219 14.3242C9.4082 14.1719 9.19141 14.0488 9.08594 13.9551C8.98633 13.8613 8.91016 13.7852 8.85742 13.7207L7.7793 14.8574L7.89062 14.9922C7.9668 15.0918 8.08984 15.2031 8.25977 15.332C8.43555 15.4609 8.63477 15.584 8.86328 15.7129C9.0918 15.8418 9.39062 15.9531 9.75391 16.0469C10.1172 16.1406 10.498 16.1816 10.8965 16.1816C11.8457 16.1816 12.6133 15.9062 13.1992 15.3496C13.7852 14.793 14.0723 14.0898 14.0723 13.2402C14.0723 12.4316 13.8086 11.7637 13.2695 11.2246C12.7363 10.6914 12.0684 10.4219 11.2598 10.4219Z" fill="#002E5D"/>
<path d="M16.742 9V7.90336H17.7849V7.09664H16.742V6H16.0398V7.09664H15V7.90336H16.0398V9H16.742Z" fill="#002E5D"/>
</svg>
