<svg width="14" height="14" viewBox="0 0 14 14" fill="none" xmlns="http://www.w3.org/2000/svg">
<path d="M3.13158 0C3.54282 0 3.95004 0.0810007 4.32998 0.238377C4.70992 0.395754 5.05515 0.626424 5.34594 0.917218C5.63673 1.20801 5.8674 1.55323 6.02478 1.93318C6.18216 2.31312 6.26316 2.72033 6.26316 3.13158V5.26316C6.26316 5.81544 5.81544 6.26316 5.26316 6.26316H3.13158C2.30103 6.26316 1.5045 5.93322 0.917219 5.34594C0.329935 4.75865 1.33843e-06 3.96213 1.33843e-06 3.13158C1.33843e-06 2.30103 0.329935 1.5045 0.917219 0.917218C1.5045 0.329933 2.30103 0 3.13158 0ZM4.78947 4.78947V3.13158C4.78947 2.80368 4.69224 2.48314 4.51007 2.2105C4.3279 1.93786 4.06897 1.72537 3.76603 1.59988C3.46309 1.4744 3.12974 1.44157 2.80814 1.50554C2.48654 1.56951 2.19113 1.72741 1.95927 1.95927C1.72741 2.19113 1.56951 2.48654 1.50554 2.80814C1.44157 3.12974 1.4744 3.46309 1.59988 3.76603C1.72537 4.06897 1.93786 4.3279 2.2105 4.51007C2.48314 4.69224 2.80368 4.78947 3.13158 4.78947H4.78947ZM3.13158 7.73684H5.26316C5.81544 7.73684 6.26316 8.18456 6.26316 8.73684V10.8684C6.26316 11.4878 6.07949 12.0932 5.73539 12.6082C5.39129 13.1232 4.9022 13.5246 4.32998 13.7616C3.75776 13.9986 3.12811 14.0607 2.52064 13.9398C1.91317 13.819 1.35518 13.5207 0.917219 13.0828C0.47926 12.6448 0.181006 12.0868 0.0601738 11.4794C-0.0606588 10.8719 0.00135686 10.2422 0.238379 9.67002C0.4754 9.0978 0.876782 8.60871 1.39177 8.26461C1.90675 7.92051 2.51221 7.73684 3.13158 7.73684ZM3.13158 9.21053C2.80368 9.21053 2.48314 9.30776 2.2105 9.48993C1.93786 9.6721 1.72537 9.93103 1.59988 10.234C1.4744 10.5369 1.44157 10.8703 1.50554 11.1919C1.56951 11.5135 1.72741 11.8089 1.95927 12.0407C2.19113 12.2726 2.48654 12.4305 2.80814 12.4945C3.12974 12.5584 3.46309 12.5256 3.76603 12.4001C4.06897 12.2746 4.3279 12.0621 4.51007 11.7895C4.69224 11.5169 4.78947 11.1963 4.78947 10.8684V9.21053H3.13158ZM10.8684 0C11.699 0 12.4955 0.329933 13.0828 0.917218C13.6701 1.5045 14 2.30103 14 3.13158C14 3.96213 13.6701 4.75865 13.0828 5.34594C12.4955 5.93322 11.699 6.26316 10.8684 6.26316H8.73684C8.18456 6.26316 7.73684 5.81544 7.73684 5.26316V3.13158C7.73684 2.30103 8.06678 1.5045 8.65406 0.917218C9.24135 0.329933 10.0379 0 10.8684 0ZM10.8684 4.78947C11.1963 4.78947 11.5169 4.69224 11.7895 4.51007C12.0621 4.3279 12.2746 4.06897 12.4001 3.76603C12.5256 3.46309 12.5584 3.12974 12.4945 2.80814C12.4305 2.48654 12.2726 2.19113 12.0407 1.95927C11.8089 1.72741 11.5135 1.56951 11.1919 1.50554C10.8703 1.44157 10.5369 1.4744 10.234 1.59988C9.93103 1.72537 9.6721 1.93786 9.48993 2.2105C9.30776 2.48314 9.21053 2.80368 9.21053 3.13158V4.78947H10.8684ZM7.73684 8.73684C7.73684 8.18456 8.18456 7.73684 8.73684 7.73684H10.8684C11.4878 7.73684 12.0932 7.92051 12.6082 8.26461C13.1232 8.60871 13.5246 9.0978 13.7616 9.67002C13.9986 10.2422 14.0607 10.8719 13.9398 11.4794C13.819 12.0868 13.5207 12.6448 13.0828 13.0828C12.6448 13.5207 12.0868 13.819 11.4794 13.9398C10.8719 14.0607 10.2422 13.9986 9.67002 13.7616C9.0978 13.5246 8.60871 13.1232 8.26461 12.6082C7.92051 12.0932 7.73684 11.4878 7.73684 10.8684V8.73684ZM9.21053 9.21053V10.8684C9.21053 11.1963 9.30776 11.5169 9.48993 11.7895C9.6721 12.0621 9.93103 12.2746 10.234 12.4001C10.5369 12.5256 10.8703 12.5584 11.1919 12.4945C11.5135 12.4305 11.8089 12.2726 12.0407 12.0407C12.2726 11.8089 12.4305 11.5135 12.4945 11.1919C12.5584 10.8703 12.5256 10.5369 12.4001 10.234C12.2746 9.93103 12.0621 9.6721 11.7895 9.48993C11.5169 9.30776 11.1963 9.21053 10.8684 9.21053H9.21053Z" fill="#002E5D"/>
</svg>
