<svg width="17" height="17" viewBox="0 0 17 17" fill="none" xmlns="http://www.w3.org/2000/svg">
<path fill-rule="evenodd" clip-rule="evenodd" d="M11.531 12.5916C10.3151 13.5747 8.76717 14.1635 7.08174 14.1635C3.1706 14.1635 0 10.9929 0 7.08175C0 3.17061 3.1706 1.04904e-05 7.08174 1.04904e-05C10.9929 1.04904e-05 14.1635 3.17061 14.1635 7.08175C14.1635 8.76713 13.5747 10.315 12.5917 11.5309L15.8791 14.8184C16.172 15.1112 16.172 15.5861 15.8791 15.879C15.5862 16.1719 15.1113 16.1719 14.8184 15.879L11.531 12.5916ZM12.6635 7.08175C12.6635 10.1645 10.1644 12.6635 7.08174 12.6635C3.99903 12.6635 1.5 10.1645 1.5 7.08175C1.5 3.99904 3.99903 1.50001 7.08174 1.50001C10.1644 1.50001 12.6635 3.99904 12.6635 7.08175Z" fill="#002E5D"/>
</svg>
