<svg width="17" height="15" viewBox="0 0 17 15" fill="none" xmlns="http://www.w3.org/2000/svg">
<path d="M15.8115 12.6932C16.2967 12.6932 16.69 13.0865 16.69 13.5716C16.69 14.0567 16.2967 14.45 15.8115 14.45H1.75684C1.2717 14.45 0.878419 14.0567 0.878419 13.5716C0.878419 13.0865 1.2717 12.6932 1.75684 12.6932H15.8115ZM3.49462 0.853567C3.8096 0.538585 4.34818 0.761668 4.34818 1.20712V7.48926C4.34818 7.93471 3.8096 8.15779 3.49462 7.84281L0.353553 4.70174C0.158291 4.50648 0.158291 4.1899 0.353553 3.99464L3.49462 0.853567ZM15.8115 6.54424C16.2967 6.54424 16.69 6.93752 16.69 7.42266C16.69 7.90779 16.2967 8.30108 15.8115 8.30108H9.66261C9.17747 8.30108 8.78419 7.90779 8.78419 7.42266C8.78419 6.93752 9.17747 6.54424 9.66261 6.54424H15.8115ZM15.8115 0.395302C16.2967 0.395302 16.69 0.788584 16.69 1.27372C16.69 1.75886 16.2967 2.15214 15.8115 2.15214H9.66261C9.17747 2.15214 8.78419 1.75886 8.78419 1.27372C8.78419 0.788584 9.17747 0.395302 9.66261 0.395302H12.7371H15.8115Z" fill="#002E5D"/>
</svg>
