<svg width="11" height="15" viewBox="0 0 11 15" fill="none" xmlns="http://www.w3.org/2000/svg">
<path d="M5.50304 14.2784C8.27017 14.2784 10.2034 12.8052 10.2034 10.3876C10.2034 7.76228 7.98588 7.08233 5.78733 6.38349C3.85413 5.7791 3.11497 5.34468 3.11497 4.32476C3.11497 3.32373 3.92994 2.68156 5.19979 2.68156C6.67812 2.68156 7.51205 3.47483 7.98588 4.53252L9.82431 3.47483C8.99038 1.7183 7.37938 0.566162 5.19979 0.566162C2.96334 0.566162 0.935378 1.94495 0.935378 4.38142C0.935378 6.87457 2.94439 7.63006 5.01026 8.25335C6.98137 8.85775 8.02378 9.25438 8.02378 10.4254C8.02378 11.3887 7.28462 12.163 5.5599 12.163C3.75937 12.163 2.73591 11.2753 2.26208 9.93433L0.385742 11.0298C1.087 12.9941 2.88753 14.2784 5.50304 14.2784Z" fill="#94A8BB"/>
</svg>
