<svg width="139" height="28" viewBox="0 0 139 28" fill="none" xmlns="http://www.w3.org/2000/svg">
<path d="M111.287 18.4751C111.287 12.8094 107.117 9.03226 101.209 9.03226C95.3019 9.03226 91.045 12.6452 91.045 18.4751C91.045 24.305 95.3019 27.9179 101.383 27.9179C106.943 27.9179 111.287 24.2229 111.287 18.4751ZM112.069 25.4545V27.9179H120.148C123.276 28 125.795 25.6188 125.882 22.6628C125.969 16.6686 118.671 17.654 118.671 14.3695C118.671 13.2199 119.279 11.9883 121.625 11.9883H123.884V9.60704H119.106C114.588 9.60704 111.982 12.5631 111.982 15.437C111.982 20.7742 119.279 20.9384 119.192 23.6481C119.192 24.5513 118.584 25.3724 116.934 25.3724L112.069 25.4545ZM139 27.9179H135.438C130.486 27.9179 127.185 25.4545 127.185 20.9384V11.9883H124.753V9.60704H127.185V4.10557H133.266V9.60704H138.305V11.9883H133.266V21.0205C133.266 23.3197 134.135 25.4545 136.307 25.4545H138.913L139 27.9179ZM77.84 0V2.46334H75.2337C73.0619 2.46334 72.1931 4.59824 72.1931 6.89736V9.52493H77.2319V11.9062H72.1062V27.9179H66.025V11.9883H63.5925V9.60704H66.025V6.97947C66.025 2.46334 69.3262 0 74.2781 0H77.84ZM36.4006 25.4545V27.9179H44.48C47.6075 28 50.1269 25.6188 50.2137 22.6628C50.3006 16.6686 43.0031 17.654 43.0031 14.3695C43.0031 13.2199 43.6113 11.9883 45.9569 11.9883H48.2156V9.60704H43.4375C38.92 9.60704 36.3137 12.5631 36.3137 15.437C36.3137 20.7742 43.6112 20.9384 43.5244 23.6481C43.5244 24.5513 42.9162 25.3724 41.2656 25.3724L36.4006 25.4545ZM19.1994 9.60704H14.9425L10.7725 22.4985L6.6025 9.60704H0L6.86312 27.9179H12.51L19.1994 9.60704ZM35.5319 17.0792V18.6393H23.4562C23.7169 22.3343 26.41 25.5367 30.1456 25.5367H35.5319V28H28.4081C22.5006 28 17.375 25.3724 17.375 19.0499C17.375 13.1378 22.0662 9.11437 27.105 9.11437C31.97 9.03226 35.5319 12.1525 35.5319 17.0792ZM30.4062 15.6012C30.4062 13.8768 29.3638 11.7419 27.105 11.7419C24.325 11.7419 23.4562 13.9589 23.3694 16.4223H30.3194V16.0938C30.4062 15.9296 30.4062 15.7654 30.4062 15.6012ZM63.3319 27.9179H59.77C54.8181 27.9179 51.5169 25.4545 51.5169 20.9384V11.9883H49.0844V9.60704H51.5169V4.10557H57.5981V9.60704H62.6369V11.9883H57.5981V21.0205C57.5981 23.3197 58.4669 25.4545 60.6388 25.4545H63.245L63.3319 27.9179ZM90.6106 9.60704H89.8288C87.2225 9.60704 85.1375 11.2493 84.0081 13.9589V9.60704H77.9269V27.9179H84.0081V19.0499C84.0081 16.915 85.3112 15.1085 88.0044 15.0264H90.6106V9.60704ZM105.032 18.4751C105.032 21.5953 103.902 25.1261 101.296 25.1261C98.69 25.1261 97.3 21.6774 97.3 18.5572C97.3 15.6012 98.1687 11.9883 101.122 11.9883C104.076 11.9883 105.032 15.437 105.032 18.4751Z" fill="#002E5D"/>
</svg>
