<svg width="24" height="24" viewBox="0 0 24 24" fill="none" xmlns="http://www.w3.org/2000/svg">
<circle cx="12" cy="12" r="11.75" stroke="#E5E5E5" stroke-width="0.5"/>
<g clip-path="url(#clip0)">
<path d="M6.85129 12.5803H15.4239C16.6668 12.5803 17.6779 11.5692 17.6779 10.3264C17.6779 9.08537 16.6697 8.07539 15.4293 8.07245C15.3071 8.07061 14.5137 8.08159 13.9212 8.65925C13.5242 9.04625 13.323 9.57802 13.323 10.2397C13.323 10.5319 13.5599 10.7687 13.852 10.7687C14.1442 10.7687 14.381 10.5319 14.381 10.2397C14.381 9.87731 14.4731 9.60214 14.6547 9.42188C14.9376 9.1409 15.3777 9.13078 15.4129 9.13043C15.4178 9.13059 15.4172 9.13051 15.4239 9.13051C16.0833 9.13051 16.6198 9.66698 16.6198 10.3264C16.6198 10.9858 16.0833 11.5223 15.4239 11.5223H6.85129C6.55911 11.5223 6.32227 11.7591 6.32227 12.0513C6.32227 12.3435 6.55911 12.5803 6.85129 12.5803Z" fill="#002E5D"/>
<path d="M6.85129 10.5081H10.9374C12.1803 10.5081 13.1914 9.49695 13.1914 8.25412C13.1914 7.01305 12.1832 6.00303 10.9428 6.0002C10.8191 5.99848 10.027 6.0095 9.43465 6.58701C9.03775 6.97405 8.83649 7.50581 8.83649 8.1675C8.83649 8.45967 9.07332 8.69656 9.36551 8.69656C9.65771 8.69656 9.8945 8.45969 9.8945 8.1675C9.8945 7.8051 9.9866 7.52993 10.1681 7.34967C10.451 7.06873 10.8911 7.05854 10.9264 7.05818C10.9314 7.05834 10.9307 7.05826 10.9374 7.05826C11.5968 7.05826 12.1333 7.59473 12.1333 8.25412C12.1333 8.91356 11.5969 9.45003 10.9374 9.45003H6.85129C6.55911 9.45003 6.32227 9.68689 6.32227 9.97909C6.32227 10.2713 6.55911 10.5081 6.85129 10.5081Z" fill="#002E5D"/>
<path d="M15.4239 13.4922H6.85129C6.55911 13.4922 6.32227 13.7291 6.32227 14.0212C6.32227 14.3134 6.55909 14.5503 6.85129 14.5503H15.4239C16.0833 14.5503 16.6198 15.0867 16.6198 15.7461C16.6198 16.4056 16.0834 16.942 15.4239 16.942C15.4172 16.942 15.4179 16.9419 15.4129 16.9421C15.3777 16.9418 14.9376 16.9316 14.6547 16.6507C14.4731 16.4704 14.381 16.1952 14.381 15.8328C14.381 15.5406 14.1442 15.3037 13.8521 15.3037C13.5599 15.3037 13.323 15.5406 13.323 15.8328C13.323 16.4945 13.5243 17.0263 13.9212 17.4133C14.4898 17.9678 15.2429 18.0003 15.4113 18.0002C15.4184 18.0002 15.4244 18.0002 15.4293 18.0001C16.6697 17.9972 17.6779 16.9872 17.6779 15.7462C17.6779 14.5033 16.6668 13.4922 15.4239 13.4922Z" fill="#002E5D"/>
</g>
<defs>
<clipPath id="clip0">
<rect width="12" height="12" fill="white" transform="translate(6 6)"/>
</clipPath>
</defs>
</svg>
